<svg xmlns="http://www.w3.org/2000/svg" width="512" height="512" viewBox="0 0 512 512">
<g>
<path d="M 433.54 285.28 L 433.58 288.00 L 78.42 288.00 L 78.46 285.28 C78.49,283.37 77.92,282.44 76.57,282.17 C75.51,281.96 74.07,281.22 73.38,280.52 C72.65,279.79 69.30,279.20 65.44,279.12 C57.73,278.95 56.64,278.50 57.34,275.81 C58.00,273.28 54.75,270.00 51.59,270.00 C49.61,270.00 49.23,269.55 49.45,267.50 C49.60,266.12 49.45,265.00 49.11,265.00 C48.78,265.00 48.78,260.16 49.12,254.25 C49.46,248.34 49.55,243.16 49.31,242.75 C49.07,242.34 50.03,242.00 51.44,242.00 C54.73,242.00 58.01,238.76 57.34,236.19 C56.61,233.40 58.38,232.69 65.53,232.89 C69.81,233.01 72.25,232.61 73.22,231.64 C74.00,230.86 75.51,230.04 76.57,229.83 C77.92,229.56 78.49,228.63 78.46,226.72 L 78.42 224.00 L 433.58 224.00 L 433.54 226.72 C433.51,228.67 434.07,229.56 435.50,229.84 C436.60,230.05 437.79,230.69 438.15,231.26 C438.50,231.82 441.96,232.40 445.83,232.54 C453.90,232.84 455.38,233.45 454.66,236.19 C454.00,238.71 457.25,242.00 460.39,242.00 C463.10,242.00 464.41,244.19 462.72,245.88 C462.10,246.50 462.03,247.00 462.55,247.00 C463.08,247.00 463.50,250.98 463.50,256.00 C463.50,260.95 463.11,265.00 462.63,265.00 C462.15,265.00 462.32,265.67 463.00,266.50 C463.93,267.62 463.94,268.00 463.06,268.00 C462.41,268.00 462.13,268.40 462.44,268.90 C463.04,269.88 460.20,271.46 457.07,271.88 C456.25,271.98 454.69,275.27 454.55,277.17 C454.43,278.83 452.56,279.31 446.52,279.22 C442.33,279.16 439.55,279.59 438.69,280.45 C437.96,281.19 436.49,281.96 435.43,282.17 C434.08,282.44 433.51,283.37 433.54,285.28 ZM 433.54 157.28 L 433.58 160.00 L 78.42 160.00 L 78.46 157.28 C78.49,155.37 77.92,154.44 76.57,154.17 C75.51,153.96 74.07,153.22 73.38,152.52 C72.65,151.79 69.30,151.20 65.44,151.12 C57.73,150.95 56.64,150.50 57.34,147.81 C58.00,145.28 54.75,142.00 51.59,142.00 C49.61,142.00 49.23,141.55 49.45,139.50 C49.60,138.12 49.45,137.00 49.11,137.00 C48.78,137.00 48.78,132.16 49.12,126.25 C49.46,120.34 49.55,115.16 49.31,114.75 C49.07,114.34 50.03,114.00 51.44,114.00 C54.73,114.00 58.01,110.76 57.34,108.19 C56.61,105.40 58.38,104.69 65.53,104.89 C69.81,105.01 72.25,104.61 73.22,103.64 C74.00,102.86 75.51,102.04 76.57,101.83 C77.92,101.56 78.49,100.63 78.46,98.72 L 78.42 96.00 L 433.58 96.00 L 433.54 98.72 C433.51,100.67 434.07,101.56 435.50,101.84 C436.60,102.05 437.79,102.69 438.15,103.26 C438.50,103.82 441.96,104.40 445.83,104.54 C453.90,104.84 455.38,105.45 454.66,108.19 C454.00,110.71 457.25,114.00 460.39,114.00 C463.10,114.00 464.41,116.19 462.72,117.88 C462.10,118.50 462.03,119.00 462.55,119.00 C463.08,119.00 463.50,122.98 463.50,128.00 C463.50,132.95 463.11,137.00 462.63,137.00 C462.15,137.00 462.32,137.68 463.00,138.50 C463.93,139.62 463.94,140.00 463.06,140.00 C462.41,140.00 462.13,140.40 462.44,140.90 C463.04,141.88 460.20,143.46 457.07,143.88 C456.25,143.98 454.69,147.27 454.55,149.17 C454.43,150.83 452.56,151.31 446.52,151.22 C442.33,151.16 439.55,151.59 438.69,152.45 C437.96,153.19 436.49,153.96 435.43,154.17 C434.08,154.44 433.51,155.37 433.54,157.28 ZM 433.54 413.28 L 433.58 416.00 L 78.42 416.00 L 78.46 413.28 C78.49,411.37 77.92,410.44 76.57,410.17 C75.51,409.96 74.07,409.22 73.38,408.52 C72.65,407.79 69.30,407.20 65.44,407.12 C57.73,406.95 56.64,406.50 57.34,403.81 C58.00,401.28 54.75,398.00 51.59,398.00 C49.61,398.00 49.23,397.55 49.45,395.50 C49.60,394.12 49.45,393.00 49.11,393.00 C48.78,393.00 48.78,388.16 49.12,382.25 C49.46,376.34 49.55,371.16 49.31,370.75 C49.07,370.34 50.03,370.00 51.44,370.00 C54.73,370.00 58.01,366.76 57.34,364.19 C56.61,361.40 58.38,360.69 65.53,360.89 C69.81,361.01 72.25,360.61 73.22,359.64 C74.00,358.86 75.51,358.04 76.57,357.83 C77.92,357.56 78.49,356.63 78.46,354.72 L 78.42 352.00 L 433.58 352.00 L 433.54 354.72 C433.51,356.67 434.07,357.56 435.50,357.84 C436.60,358.05 437.79,358.69 438.15,359.26 C438.50,359.82 441.96,360.40 445.83,360.54 C453.90,360.84 455.38,361.45 454.66,364.19 C454.00,366.71 457.25,370.00 460.39,370.00 C463.10,370.00 464.41,372.19 462.72,373.88 C462.10,374.50 462.03,375.00 462.55,375.00 C463.08,375.00 463.50,378.98 463.50,384.00 C463.50,388.95 463.11,393.00 462.63,393.00 C462.15,393.00 462.32,393.67 463.00,394.50 C463.93,395.62 463.94,396.00 463.06,396.00 C462.41,396.00 462.13,396.40 462.44,396.90 C463.04,397.88 460.20,399.46 457.07,399.88 C456.25,399.98 454.69,403.27 454.55,405.17 C454.43,406.83 452.56,407.31 446.52,407.22 C442.33,407.16 439.55,407.59 438.69,408.45 C437.96,409.19 436.49,409.96 435.43,410.17 C434.08,410.44 433.51,411.37 433.54,413.28 Z" fill="rgb(0,0,0)"/>
<path d="M 433.54 157.28 C433.51,155.37 434.08,154.44 435.43,154.17 C436.49,153.96 437.96,153.19 438.69,152.45 C439.55,151.59 442.33,151.16 446.52,151.22 C452.56,151.31 454.43,150.83 454.55,149.17 C454.69,147.27 456.25,143.98 457.07,143.88 C460.20,143.46 463.04,141.88 462.44,140.90 C462.13,140.40 462.41,140.00 463.06,140.00 C463.94,140.00 463.93,139.62 463.00,138.50 C462.32,137.68 462.15,137.00 462.63,137.00 C463.11,137.00 463.50,132.95 463.50,128.00 C463.50,122.98 463.08,119.00 462.55,119.00 C462.03,119.00 462.10,118.50 462.72,117.88 C464.41,116.19 463.10,114.00 460.39,114.00 C457.25,114.00 454.00,110.71 454.66,108.19 C455.38,105.45 453.90,104.84 445.83,104.54 C441.96,104.40 438.50,103.82 438.15,103.26 C437.79,102.69 436.60,102.05 435.50,101.84 C434.07,101.56 433.51,100.67 433.54,98.72 L 433.57 96.50 L 445.50 96.50 L 450.12 98.64 C456.98,101.81 462.93,107.70 466.16,114.50 C473.73,130.50 466.52,149.78 450.12,157.36 L 445.50 159.50 L 433.57 159.51 ZM 433.54 413.28 C433.51,411.37 434.08,410.44 435.43,410.17 C436.49,409.96 437.96,409.19 438.69,408.45 C439.55,407.59 442.33,407.16 446.52,407.22 C452.56,407.31 454.43,406.83 454.55,405.17 C454.69,403.27 456.25,399.98 457.07,399.88 C460.20,399.46 463.04,397.88 462.44,396.90 C462.13,396.40 462.41,396.00 463.06,396.00 C463.94,396.00 463.93,395.62 463.00,394.50 C462.32,393.67 462.15,393.00 462.63,393.00 C463.11,393.00 463.50,388.95 463.50,384.00 C463.50,378.98 463.08,375.00 462.55,375.00 C462.03,375.00 462.10,374.50 462.72,373.88 C464.41,372.19 463.10,370.00 460.39,370.00 C457.25,370.00 454.00,366.71 454.66,364.19 C455.38,361.45 453.90,360.84 445.83,360.54 C441.96,360.40 438.50,359.82 438.15,359.26 C437.79,358.69 436.60,358.05 435.50,357.84 C434.07,357.56 433.51,356.67 433.54,354.72 L 433.57 352.50 L 445.50 352.50 L 450.12 354.64 C456.98,357.81 462.93,363.70 466.16,370.50 C473.73,386.50 466.52,405.78 450.12,413.36 L 445.50 415.50 L 433.57 415.51 ZM 433.54 285.28 C433.51,283.37 434.08,282.44 435.43,282.17 C436.49,281.96 437.96,281.19 438.69,280.45 C439.55,279.59 442.33,279.16 446.52,279.22 C452.56,279.31 454.43,278.83 454.55,277.17 C454.69,275.27 456.25,271.98 457.07,271.88 C460.20,271.46 463.04,269.88 462.44,268.90 C462.13,268.40 462.41,268.00 463.06,268.00 C463.94,268.00 463.93,267.62 463.00,266.50 C462.32,265.67 462.15,265.00 462.63,265.00 C463.11,265.00 463.50,260.95 463.50,256.00 C463.50,250.98 463.08,247.00 462.55,247.00 C462.03,247.00 462.10,246.50 462.72,245.88 C464.41,244.19 463.10,242.00 460.39,242.00 C457.25,242.00 454.00,238.71 454.66,236.19 C455.38,233.45 453.90,232.84 445.83,232.54 C441.96,232.40 438.50,231.82 438.15,231.26 C437.79,230.69 436.60,230.05 435.50,229.84 C434.07,229.56 433.51,228.67 433.54,226.72 L 433.57 224.50 L 445.50 224.50 L 450.12 226.64 C456.98,229.81 462.93,235.70 466.16,242.50 C473.73,258.50 466.52,277.78 450.12,285.36 L 445.50 287.50 L 433.57 287.51 ZM 78.43 415.13 C66.34,414.68 63.70,413.93 61.30,412.70 C60.88,412.49 60.46,412.26 60.00,412.01 C54.52,409.08 50.01,404.51 46.84,398.65 C43.80,393.05 43.50,391.74 43.50,384.00 C43.50,376.22 43.79,374.96 46.91,369.20 C50.62,362.36 55.16,358.20 62.67,354.73 L 67.50 352.50 L 78.43 352.50 L 78.46 354.72 C78.49,356.63 77.92,357.56 76.57,357.83 C75.51,358.04 74.00,358.86 73.22,359.64 C72.25,360.61 69.81,361.01 65.53,360.89 C58.38,360.69 56.61,361.40 57.34,364.19 C58.01,366.76 54.73,370.00 51.44,370.00 C50.03,370.00 49.07,370.34 49.31,370.75 C49.55,371.16 49.46,376.34 49.12,382.25 C48.78,388.16 48.78,393.00 49.11,393.00 C49.45,393.00 49.60,394.12 49.45,395.50 C49.23,397.55 49.61,398.00 51.59,398.00 C54.75,398.00 58.00,401.28 57.34,403.81 C56.64,406.50 57.73,406.95 65.44,407.12 C69.30,407.20 72.65,407.79 73.38,408.52 C74.07,409.22 75.51,409.96 76.57,410.17 C77.92,410.44 78.49,411.37 78.46,413.28 ZM 78.43 287.13 C66.34,286.68 63.70,285.93 61.30,284.70 C60.88,284.49 60.46,284.26 60.00,284.01 C54.52,281.08 50.01,276.51 46.84,270.65 C43.80,265.05 43.50,263.74 43.50,256.00 C43.50,248.22 43.79,246.96 46.91,241.20 C50.62,234.36 55.16,230.20 62.67,226.73 L 67.50 224.50 L 78.43 224.50 L 78.46 226.72 C78.49,228.63 77.92,229.56 76.57,229.83 C75.51,230.04 74.00,230.86 73.22,231.64 C72.25,232.61 69.81,233.01 65.53,232.89 C58.38,232.69 56.61,233.40 57.34,236.19 C58.01,238.76 54.73,242.00 51.44,242.00 C50.03,242.00 49.07,242.34 49.31,242.75 C49.55,243.16 49.46,248.34 49.12,254.25 C48.78,260.16 48.78,265.00 49.11,265.00 C49.45,265.00 49.60,266.12 49.45,267.50 C49.23,269.55 49.61,270.00 51.59,270.00 C54.75,270.00 58.00,273.28 57.34,275.81 C56.64,278.50 57.73,278.95 65.44,279.12 C69.30,279.20 72.65,279.79 73.38,280.52 C74.07,281.22 75.51,281.96 76.57,282.17 C77.92,282.44 78.49,283.37 78.46,285.28 ZM 78.43 159.13 C66.34,158.68 63.70,157.93 61.30,156.70 C60.88,156.49 60.46,156.26 60.00,156.01 C54.52,153.08 50.01,148.51 46.84,142.65 C43.80,137.05 43.50,135.74 43.50,128.00 C43.50,120.22 43.79,118.96 46.91,113.20 C50.62,106.36 55.16,102.20 62.67,98.73 L 67.50 96.50 L 78.43 96.50 L 78.46 98.72 C78.49,100.63 77.92,101.56 76.57,101.83 C75.51,102.04 74.00,102.86 73.22,103.64 C72.25,104.61 69.81,105.01 65.53,104.89 C58.38,104.69 56.61,105.40 57.34,108.19 C58.01,110.76 54.73,114.00 51.44,114.00 C50.03,114.00 49.07,114.34 49.31,114.75 C49.55,115.16 49.46,120.34 49.12,126.25 C48.78,132.16 48.78,137.00 49.11,137.00 C49.45,137.00 49.60,138.12 49.45,139.50 C49.23,141.55 49.61,142.00 51.59,142.00 C54.75,142.00 58.00,145.28 57.34,147.81 C56.64,150.50 57.73,150.95 65.44,151.12 C69.30,151.20 72.65,151.79 73.38,152.52 C74.07,153.22 75.51,153.96 76.57,154.17 C77.92,154.44 78.49,155.37 78.46,157.28 Z" fill="rgb(1,1,1)"/>
<path d="M 0.00 256.00 L 0.00 0.00 L 256.00 0.00 L 512.00 0.00 L 512.00 256.00 L 512.00 512.00 L 256.00 512.00 L 0.00 512.00 L 0.00 256.00 ZM 450.12 413.36 C466.52,405.78 473.73,386.50 466.16,370.50 C462.93,363.70 456.98,357.81 450.12,354.64 L 445.50 352.50 L 256.50 352.50 L 67.50 352.50 L 62.67 354.73 C55.16,358.20 50.62,362.36 46.91,369.20 C43.79,374.96 43.50,376.22 43.50,384.00 C43.50,391.74 43.80,393.05 46.84,398.65 C50.01,404.51 54.52,409.08 60.00,412.01 C67.37,415.95 63.59,415.88 258.00,415.69 L 445.50 415.50 L 450.12 413.36 ZM 450.12 285.36 C466.52,277.78 473.73,258.50 466.16,242.50 C462.93,235.70 456.98,229.81 450.12,226.64 L 445.50 224.50 L 256.50 224.50 L 67.50 224.50 L 62.67 226.73 C55.16,230.20 50.62,234.36 46.91,241.20 C43.79,246.96 43.50,248.22 43.50,256.00 C43.50,263.74 43.80,265.05 46.84,270.65 C50.01,276.51 54.52,281.08 60.00,284.01 C67.37,287.95 63.59,287.88 258.00,287.69 L 445.50 287.50 L 450.12 285.36 ZM 450.12 157.36 C466.52,149.78 473.73,130.50 466.16,114.50 C462.93,107.70 456.98,101.81 450.12,98.64 L 445.50 96.50 L 256.50 96.50 L 67.50 96.50 L 62.67 98.73 C55.16,102.20 50.62,106.36 46.91,113.20 C43.79,118.96 43.50,120.22 43.50,128.00 C43.50,135.74 43.80,137.05 46.84,142.65 C50.01,148.51 54.52,153.08 60.00,156.01 C67.37,159.95 63.59,159.88 258.00,159.69 L 445.50 159.50 L 450.12 157.36 Z" fill="rgb(254,254,254)"/>
</g>
</svg>